<?xml version="1.0" encoding="utf-8"?>
<!-- Generator: $$$/GeneralStr/196=Adobe Illustrator 27.6.0, SVG Export Plug-In . SVG Version: 6.00 Build 0)  -->
<svg version="1.1" id="Laag_1" xmlns="http://www.w3.org/2000/svg" xmlns:xlink="http://www.w3.org/1999/xlink" x="0px" y="0px"
	 viewBox="0 0 122 24" style="enable-background:new 0 0 122 24;" xml:space="preserve">
<style type="text/css">
	.st0{fill:url(#SVGID_1_);}
	.st1{fill:#FFFFFF;}
	.st2{fill:url(#SVGID_00000170252887672676452720000009462057705475966363_);}
	.st3{fill:url(#SVGID_00000106831779717936754230000005259854242559781806_);}
	.st4{fill:url(#SVGID_00000048480721074701693130000011577406489451956886_);}
	.st5{fill:url(#SVGID_00000011014175412477909280000004557672885050567053_);}
	.st6{fill:#111111;}
</style>
<g>
	<g>
		<linearGradient id="SVGID_1_" gradientUnits="userSpaceOnUse" x1="15.7174" y1="7.7436" x2="11.182" y2="15.328">
			<stop  offset="0" style="stop-color:#91F7EC"/>
			<stop  offset="1" style="stop-color:#2FADEB"/>
		</linearGradient>
		<circle class="st0" cx="13.3" cy="11.7" r="4.5"/>
		<path class="st1" d="M16.9,10.2c0.4,1.1,0.5,2.1,0.1,2.2c-0.4,0.2-1.1-0.6-1.5-1.6c-0.4-1.1-0.5-2.1-0.1-2.2
			C15.8,8.4,16.5,9.1,16.9,10.2z"/>
		<g>
			<g>
				
					<linearGradient id="SVGID_00000132772513837222518520000003123484954020632225_" gradientUnits="userSpaceOnUse" x1="-1.8868" y1="9.014" x2="12.7103" y2="17.3987">
					<stop  offset="0" style="stop-color:#ACDCFF"/>
					<stop  offset="1" style="stop-color:#0A99FF"/>
				</linearGradient>
				<path style="fill:url(#SVGID_00000132772513837222518520000003123484954020632225_);" d="M11.6,19.2L11.6,19.2
					c-1.5,1.5-3.9,1.5-5.4,0l-4.8-4.8l-0.5-0.5c-1.2-1.2-1.2-3.2,0-4.5L1.4,9l2.4-2.4C1.6,8.8,3.5,11,4,11.6
					c0.1,0.1,0.1,0.1,0.1,0.1L11.6,19.2z"/>
				
					<linearGradient id="SVGID_00000013189285541103969280000003826926721483126170_" gradientUnits="userSpaceOnUse" x1="14.7157" y1="0.4252" x2="2.4244" y2="9.5722">
					<stop  offset="0" style="stop-color:#82FBB8"/>
					<stop  offset="1" style="stop-color:#29C969"/>
				</linearGradient>
				<path style="fill:url(#SVGID_00000013189285541103969280000003826926721483126170_);" d="M14.7,1.1L4.1,11.7c0,0,0,0-0.1-0.1
					c-0.5-0.5-2.4-2.8-0.2-5l5.5-5.5C10.8-0.4,13.2-0.4,14.7,1.1L14.7,1.1z"/>
			</g>
			<g>
				
					<linearGradient id="SVGID_00000182511379047008603610000006633171977251457939_" gradientUnits="userSpaceOnUse" x1="-1070.9858" y1="-1941.124" x2="-1083.4156" y2="-1931.8739" gradientTransform="matrix(-1 0 0 -1 -1059.0134 -1918.15)">
					<stop  offset="0" style="stop-color:#82FBB8"/>
					<stop  offset="1" style="stop-color:#29C969"/>
				</linearGradient>
				<path style="fill:url(#SVGID_00000182511379047008603610000006633171977251457939_);" d="M12,22.3l10.7-10.7c0,0,0,0,0.1,0.1
					c0.5,0.5,2.4,2.8,0.2,5l-5.6,5.6C15.9,23.8,13.5,23.8,12,22.3L12,22.3z"/>
				
					<linearGradient id="SVGID_00000039854338465029063090000005613699949129622207_" gradientUnits="userSpaceOnUse" x1="-1087.5996" y1="-1932.5422" x2="-1073.0024" y2="-1924.1575" gradientTransform="matrix(-1 0 0 -1 -1059.0134 -1918.15)">
					<stop  offset="0" style="stop-color:#ACDCFF"/>
					<stop  offset="1" style="stop-color:#0A99FF"/>
				</linearGradient>
				<path style="fill:url(#SVGID_00000039854338465029063090000005613699949129622207_);" d="M15.1,4.2L15.1,4.2
					c1.5-1.5,3.9-1.5,5.4,0L25.3,9l0.5,0.5c1.2,1.2,1.2,3.2,0,4.5l-0.5,0.5l-2.4,2.4c2.2-2.2,0.3-4.4-0.2-5
					c-0.1-0.1-0.1-0.1-0.1-0.1L15.1,4.2z"/>
			</g>
		</g>
	</g>
</g>
<g>
	<path class="st6" d="M39,7.6c0.1,0.5,0.3,1,0.5,1.6c0.2,0.6,0.3,1.2,0.5,1.8c0.2,0.6,0.4,1.3,0.6,1.9c0.2,0.6,0.4,1.2,0.6,1.7
		c0.1-0.6,0.3-1.2,0.5-1.9c0.2-0.7,0.3-1.4,0.4-2.1c0.1-0.7,0.3-1.5,0.4-2.2c0.1-0.7,0.3-1.4,0.4-2.1h2.8c-0.4,2-0.9,4-1.4,6
		c-0.5,2-1.1,4-1.7,5.8H40c-0.4-1.1-0.8-2.2-1.2-3.4c-0.4-1.2-0.7-2.4-1.1-3.6c-0.4,1.2-0.7,2.4-1.1,3.6c-0.4,1.2-0.7,2.3-1.1,3.4
		h-2.4c-0.6-1.8-1.2-3.8-1.7-5.8c-0.5-2-1-4-1.4-6h2.9c0.1,0.7,0.2,1.4,0.4,2.1c0.1,0.7,0.3,1.4,0.4,2.2c0.1,0.7,0.3,1.4,0.5,2.1
		c0.2,0.7,0.3,1.3,0.5,1.9c0.2-0.6,0.4-1.1,0.6-1.8c0.2-0.6,0.4-1.3,0.6-1.9c0.2-0.6,0.4-1.2,0.5-1.8c0.2-0.6,0.3-1.1,0.4-1.6H39z"
		/>
	<path class="st6" d="M46,13.8c0-0.8,0.1-1.5,0.4-2.1c0.2-0.6,0.6-1.1,1-1.5c0.4-0.4,0.9-0.7,1.4-0.9c0.5-0.2,1-0.3,1.6-0.3
		c1.3,0,2.3,0.4,3,1.2c0.7,0.8,1.1,1.9,1.1,3.4c0,0.1,0,0.3,0,0.5c0,0.2,0,0.3,0,0.5h-5.8c0.1,0.5,0.3,0.9,0.7,1.2
		c0.4,0.3,1,0.5,1.7,0.5c0.5,0,0.9,0,1.4-0.1c0.4-0.1,0.8-0.2,1.1-0.3l0.3,2.1c-0.1,0.1-0.3,0.1-0.5,0.2c-0.2,0.1-0.5,0.1-0.8,0.2
		c-0.3,0.1-0.6,0.1-0.9,0.1c-0.3,0-0.6,0.1-1,0.1c-0.8,0-1.5-0.1-2.1-0.4c-0.6-0.2-1.1-0.6-1.5-1c-0.4-0.4-0.7-0.9-0.9-1.5
		C46.1,15.1,46,14.4,46,13.8z M52,12.8c0-0.2,0-0.4-0.1-0.6c-0.1-0.2-0.2-0.4-0.3-0.5c-0.1-0.2-0.3-0.3-0.5-0.4
		c-0.2-0.1-0.4-0.2-0.7-0.2c-0.3,0-0.5,0-0.7,0.1c-0.2,0.1-0.4,0.2-0.5,0.4c-0.1,0.2-0.2,0.3-0.3,0.6c-0.1,0.2-0.1,0.4-0.2,0.6H52z"
		/>
	<path class="st6" d="M64.8,13.7c0,0.7-0.1,1.4-0.3,1.9c-0.2,0.6-0.5,1.1-0.9,1.5c-0.4,0.4-0.9,0.7-1.5,0.9c-0.6,0.2-1.2,0.3-2,0.3
		c-0.3,0-0.6,0-1,0c-0.3,0-0.7-0.1-1-0.1c-0.3,0-0.6-0.1-0.9-0.2c-0.3-0.1-0.6-0.1-0.8-0.2V5.4L59,5v4.5c0.3-0.1,0.6-0.2,0.9-0.3
		s0.6-0.1,1-0.1c0.6,0,1.2,0.1,1.7,0.3c0.5,0.2,0.9,0.5,1.2,0.9c0.3,0.4,0.6,0.9,0.8,1.5C64.7,12.4,64.8,13,64.8,13.7z M62.2,13.6
		c0-1.6-0.6-2.5-1.8-2.5c-0.3,0-0.5,0-0.8,0.1c-0.3,0.1-0.5,0.2-0.6,0.3v4.6c0.1,0,0.3,0,0.5,0.1c0.2,0,0.4,0,0.6,0
		c0.7,0,1.2-0.2,1.6-0.7C62,15.1,62.2,14.4,62.2,13.6z"/>
	<path class="st6" d="M76.4,7.6c0.1,0.5,0.3,1,0.5,1.6c0.2,0.6,0.3,1.2,0.5,1.8c0.2,0.6,0.4,1.3,0.6,1.9c0.2,0.6,0.4,1.2,0.6,1.7
		c0.1-0.6,0.3-1.2,0.5-1.9c0.2-0.7,0.3-1.4,0.4-2.1c0.1-0.7,0.3-1.5,0.4-2.2c0.1-0.7,0.3-1.4,0.4-2.1h2.8c-0.4,2-0.9,4-1.4,6
		c-0.5,2-1.1,4-1.7,5.8h-2.4c-0.4-1.1-0.8-2.2-1.2-3.4c-0.4-1.2-0.7-2.4-1.1-3.6c-0.4,1.2-0.7,2.4-1.1,3.6c-0.4,1.2-0.7,2.3-1.1,3.4
		h-2.4c-0.6-1.8-1.2-3.8-1.7-5.8c-0.5-2-1-4-1.4-6h2.9c0.1,0.7,0.2,1.4,0.4,2.1c0.1,0.7,0.3,1.4,0.4,2.2c0.1,0.7,0.3,1.4,0.5,2.1
		c0.2,0.7,0.3,1.3,0.5,1.9c0.2-0.6,0.4-1.1,0.6-1.8c0.2-0.6,0.4-1.3,0.6-1.9c0.2-0.6,0.4-1.2,0.5-1.8c0.2-0.6,0.3-1.1,0.4-1.6H76.4z
		"/>
	<path class="st6" d="M87.2,6.6c0,0.5-0.2,0.8-0.5,1.1c-0.3,0.3-0.7,0.4-1.1,0.4c-0.4,0-0.8-0.1-1.1-0.4c-0.3-0.3-0.5-0.6-0.5-1.1
		c0-0.5,0.2-0.8,0.5-1.1c0.3-0.3,0.7-0.4,1.1-0.4c0.4,0,0.8,0.1,1.1,0.4C87,5.8,87.2,6.2,87.2,6.6z M87,18.2h-2.5v-9H87V18.2z"/>
	<path class="st6" d="M96.1,10.9c-0.2,0.2-0.5,0.5-0.8,0.9c-0.3,0.4-0.7,0.8-1.1,1.3c-0.4,0.5-0.8,1-1.2,1.5c-0.4,0.5-0.8,1-1.1,1.5
		h4.3v2.1h-7.4v-1.5c0.2-0.4,0.5-0.9,0.9-1.3c0.3-0.5,0.7-0.9,1.1-1.4c0.4-0.5,0.7-0.9,1.1-1.4c0.4-0.4,0.7-0.9,1-1.2H89V9.2h7.1
		V10.9z"/>
	<path class="st6" d="M100.8,9c0.8,0,1.4,0.1,1.9,0.3c0.5,0.2,0.9,0.4,1.2,0.7c0.3,0.3,0.5,0.7,0.6,1.2c0.1,0.5,0.2,1,0.2,1.5v5.3
		c-0.4,0.1-0.9,0.2-1.5,0.3c-0.6,0.1-1.4,0.2-2.4,0.2c-0.6,0-1.1-0.1-1.6-0.2c-0.5-0.1-0.9-0.3-1.2-0.5c-0.3-0.2-0.6-0.5-0.8-0.9
		C97.1,16.4,97,16,97,15.4c0-0.5,0.1-1,0.3-1.3c0.2-0.4,0.5-0.7,0.8-0.9c0.4-0.2,0.8-0.4,1.2-0.5c0.5-0.1,0.9-0.1,1.4-0.1
		c0.3,0,0.6,0,0.9,0c0.3,0,0.5,0.1,0.6,0.1v-0.2c0-0.4-0.1-0.8-0.4-1c-0.3-0.3-0.7-0.4-1.4-0.4c-0.4,0-0.9,0-1.3,0.1
		c-0.4,0.1-0.8,0.2-1.1,0.3l-0.3-2c0.1,0,0.3-0.1,0.6-0.1c0.2-0.1,0.5-0.1,0.7-0.1c0.3,0,0.5-0.1,0.8-0.1C100.3,9,100.6,9,100.8,9z
		 M101.1,16.4c0.2,0,0.5,0,0.7,0c0.2,0,0.4,0,0.5-0.1v-1.9c-0.1,0-0.3,0-0.5-0.1c-0.2,0-0.4,0-0.6,0c-0.2,0-0.5,0-0.7,0
		c-0.2,0-0.4,0.1-0.6,0.2c-0.2,0.1-0.3,0.2-0.4,0.3c-0.1,0.1-0.1,0.3-0.1,0.5c0,0.4,0.1,0.7,0.4,0.8
		C100.2,16.4,100.6,16.4,101.1,16.4z"/>
	<path class="st6" d="M112.5,11.5c-0.2-0.1-0.5-0.1-0.8-0.2c-0.3-0.1-0.6-0.1-1-0.1c-0.2,0-0.3,0-0.6,0c-0.2,0-0.4,0.1-0.5,0.1v6.9
		h-2.5V9.7c0.5-0.2,1-0.3,1.6-0.5c0.6-0.1,1.3-0.2,2.1-0.2c0.1,0,0.3,0,0.5,0c0.2,0,0.4,0,0.6,0.1c0.2,0,0.4,0.1,0.6,0.1
		c0.2,0,0.4,0.1,0.5,0.1L112.5,11.5z"/>
	<path class="st6" d="M122,17.9c-0.2,0.1-0.5,0.1-0.8,0.2c-0.3,0.1-0.6,0.1-0.9,0.2c-0.3,0-0.7,0.1-1,0.1c-0.3,0-0.7,0-1,0
		c-0.7,0-1.4-0.1-2-0.3c-0.6-0.2-1.1-0.5-1.5-0.9c-0.4-0.4-0.7-0.9-0.9-1.5c-0.2-0.6-0.3-1.2-0.3-1.9c0-0.7,0.1-1.4,0.3-2
		c0.2-0.6,0.4-1.1,0.8-1.5c0.3-0.4,0.8-0.7,1.3-0.9c0.5-0.2,1.1-0.3,1.7-0.3c0.4,0,0.7,0,0.9,0.1c0.3,0.1,0.6,0.2,0.8,0.3V5.4L122,5
		V17.9z M116.3,13.6c0,0.8,0.2,1.4,0.5,1.9c0.4,0.5,0.9,0.7,1.6,0.7c0.2,0,0.4,0,0.6,0c0.2,0,0.4,0,0.5-0.1v-4.6
		c-0.2-0.1-0.4-0.2-0.6-0.3c-0.3-0.1-0.5-0.1-0.8-0.1C116.9,11.2,116.3,12,116.3,13.6z"/>
</g>
</svg>
