<?xml version="1.0" encoding="utf-8"?>
<!-- Generator: Adobe Illustrator 25.0.0, SVG Export Plug-In . SVG Version: 6.00 Build 0)  -->
<svg version="1.1" id="Laag_1" xmlns="http://www.w3.org/2000/svg" xmlns:xlink="http://www.w3.org/1999/xlink" x="0px" y="0px"
	 viewBox="0 0 300 51" style="enable-background:new 0 0 300 51;" xml:space="preserve">
<style type="text/css">
	.st0{fill:#FFFFFF;}
	.st1{fill:#2FADEB;}
	.st2{fill:#FFF100;}
</style>
<g>
	<path class="st0" d="M95.14,47.48H92.8h-3.88l-5.34-23.73c-0.08-0.27-0.15-0.58-0.21-0.91c-0.06-0.33-0.13-0.68-0.21-1.03
		c-0.04,0.16-0.08,0.32-0.12,0.5c-0.04,0.18-0.08,0.34-0.12,0.5c-0.04,0.2-0.08,0.37-0.12,0.53c-0.04,0.16-0.08,0.33-0.12,0.53
		l-5.34,23.61H75h-3.99L62.78,8.31h2.35h3.94l4.87,23.14c0.04,0.27,0.08,0.53,0.12,0.76c0.04,0.24,0.08,0.47,0.12,0.71
		c0.04,0.24,0.08,0.47,0.12,0.7c0.04,0.24,0.08,0.47,0.12,0.71c0.04-0.12,0.07-0.23,0.09-0.32c0.02-0.1,0.05-0.21,0.09-0.32
		c0-0.08,0.01-0.17,0.03-0.26c0.02-0.1,0.05-0.21,0.09-0.32c0.04-0.12,0.07-0.24,0.09-0.35c0.02-0.12,0.05-0.25,0.09-0.41
		c0-0.12,0.01-0.23,0.03-0.35c0.02-0.12,0.05-0.24,0.09-0.35l5.34-23.32h2.35h3.82l4.87,23.02c0.08,0.43,0.16,0.84,0.24,1.23
		c0.08,0.39,0.16,0.76,0.24,1.12c0.04,0.16,0.07,0.3,0.09,0.44c0.02,0.14,0.05,0.28,0.09,0.44c0-0.04,0.02-0.08,0.06-0.12
		c0-0.04,0-0.08,0-0.12c0.08-0.51,0.18-1.01,0.29-1.5c0.12-0.49,0.24-0.97,0.35-1.44l5.11-23.08h2.35h3.88L95.14,47.48z"/>
	<path class="st0" d="M113.06,34.27c0,0.24,0,0.45,0,0.65c0,0.2,0,0.39,0,0.59c0,0.2,0.01,0.38,0.03,0.56
		c0.02,0.18,0.05,0.36,0.09,0.56c0.12,1.06,0.34,2.06,0.68,3c0.33,0.94,0.75,1.86,1.26,2.76c0.43,0.71,0.99,1.26,1.67,1.67
		c0.68,0.41,1.48,0.7,2.38,0.85c0.55-0.08,1.06-0.24,1.53-0.47s0.92-0.53,1.35-0.88c0.55-0.47,1.06-0.98,1.53-1.53
		c0.47-0.55,0.9-1.14,1.29-1.76l2.35-0.06l2.88,1.88c-0.55,0.9-1.15,1.72-1.79,2.47c-0.65,0.74-1.34,1.39-2.09,1.94
		c-0.74,0.55-1.57,0.97-2.47,1.26c-0.9,0.29-1.92,0.46-3.05,0.5h-2.35c-2.04,0-3.8-0.34-5.29-1.03c-1.49-0.68-2.7-1.73-3.64-3.14
		c-0.98-1.41-1.7-2.93-2.17-4.55c-0.47-1.62-0.71-3.36-0.71-5.2c0-0.31,0-0.63,0-0.94c0-0.31,0.02-0.63,0.06-0.94
		c0-0.31,0.03-0.63,0.09-0.94c0.06-0.31,0.11-0.65,0.15-1c0.24-1.41,0.62-2.77,1.15-4.08c0.53-1.31,1.2-2.57,2.03-3.79
		c0.82-1.21,1.85-2.12,3.08-2.73c1.23-0.61,2.67-0.91,4.32-0.91l2.35-0.06c1.6,0.04,3.02,0.36,4.26,0.97
		c1.23,0.61,2.28,1.54,3.14,2.79c0.86,1.21,1.52,2.49,1.97,3.82c0.45,1.33,0.69,2.74,0.73,4.23v0.24v0.24v3.05H113.06z
		 M123.36,30.27c-0.02-0.2-0.05-0.41-0.09-0.65c-0.04-0.23-0.07-0.47-0.09-0.7c-0.02-0.24-0.07-0.47-0.15-0.71
		c-0.16-0.74-0.4-1.45-0.73-2.11c-0.33-0.67-0.71-1.31-1.15-1.94c-0.31-0.47-0.7-0.85-1.15-1.15c-0.45-0.29-0.95-0.5-1.5-0.62
		c-0.63,0.12-1.2,0.33-1.73,0.65c-0.53,0.31-0.99,0.74-1.38,1.29c-0.51,0.71-0.92,1.44-1.23,2.2c-0.31,0.76-0.57,1.56-0.76,2.38
		c-0.04,0.08-0.07,0.16-0.09,0.24c-0.02,0.08-0.03,0.16-0.03,0.24c-0.04,0.12-0.06,0.22-0.06,0.29c0,0.08,0,0.16,0,0.24
		c-0.04,0.16-0.07,0.32-0.09,0.5c-0.02,0.18-0.03,0.34-0.03,0.5l10.28-0.12C123.39,30.64,123.38,30.47,123.36,30.27z"/>
	<path class="st0" d="M141.66,20.41c0.08-0.04,0.17-0.09,0.26-0.15c0.1-0.06,0.19-0.11,0.26-0.15c0.55-0.31,1.12-0.56,1.7-0.73
		c0.59-0.18,1.19-0.28,1.82-0.32l2.35-0.06c1.72,0.04,3.22,0.38,4.49,1.03c1.27,0.65,2.34,1.6,3.2,2.85
		c0.86,1.25,1.55,2.58,2.06,3.96c0.51,1.39,0.84,2.85,1,4.38c0,0.12,0,0.23,0,0.32c0,0.1,0.02,0.19,0.06,0.26c0,0.12,0,0.23,0,0.32
		c0,0.1,0,0.19,0,0.26c0,0.12,0,0.23,0,0.32c0,0.1,0.02,0.19,0.06,0.26c0,0.12,0,0.23,0,0.32c0,0.1,0,0.19,0,0.26
		c0,0.12,0,0.24,0,0.38c0,0.14,0,0.26,0,0.38c-0.04,0.16-0.06,0.29-0.06,0.41s0,0.24,0,0.35s-0.01,0.24-0.03,0.35
		c-0.02,0.12-0.03,0.23-0.03,0.35c-0.04,0.16-0.06,0.29-0.06,0.41c0,0.12,0,0.24,0,0.35c-0.16,1.45-0.49,2.83-1,4.14
		c-0.51,1.31-1.16,2.55-1.94,3.73c-0.78,1.17-1.79,2.05-3.02,2.61c-1.23,0.57-2.67,0.85-4.32,0.85h-2.35
		c-0.71,0-1.38-0.08-2.03-0.24c-0.65-0.16-1.24-0.39-1.79-0.7c-0.12-0.08-0.24-0.15-0.35-0.21c-0.12-0.06-0.22-0.13-0.29-0.21v0.94
		h-2.35h-3.94V8.36h2.35h3.94V20.41z M141.84,40.14l0.18,0.24c0.35,0.63,0.75,1.19,1.2,1.7c0.45,0.51,0.93,1,1.44,1.47
		c0.39,0.31,0.79,0.58,1.2,0.79c0.41,0.22,0.85,0.36,1.32,0.44c0.67-0.12,1.24-0.35,1.73-0.7c0.49-0.35,0.91-0.8,1.26-1.35
		c0.43-0.7,0.8-1.46,1.12-2.26c0.31-0.8,0.55-1.63,0.7-2.5c0.04-0.2,0.07-0.39,0.09-0.59c0.02-0.2,0.05-0.41,0.09-0.65
		c0.04-0.2,0.07-0.39,0.09-0.59c0.02-0.2,0.03-0.39,0.03-0.59c0.04-0.39,0.07-0.76,0.09-1.12c0.02-0.35,0.03-0.68,0.03-1
		c0-0.31-0.01-0.62-0.03-0.91c-0.02-0.29-0.05-0.62-0.09-0.97c-0.04-0.35-0.07-0.7-0.09-1.06c-0.02-0.35-0.07-0.7-0.15-1.06
		c-0.16-0.9-0.41-1.75-0.76-2.55c-0.35-0.8-0.76-1.58-1.23-2.32c-0.35-0.55-0.79-1.01-1.32-1.38c-0.53-0.37-1.13-0.62-1.79-0.73
		c-0.47,0.08-0.92,0.22-1.35,0.41c-0.43,0.2-0.84,0.45-1.23,0.76c-0.55,0.39-1.05,0.84-1.5,1.35c-0.45,0.51-0.85,1.04-1.2,1.59
		v13.16L141.84,40.14z"/>
	<path class="st1" d="M191.29,47.48h-3.88l-5.34-23.73c-0.16-0.63-0.3-1.27-0.44-1.94c-0.14-0.67-0.26-1.35-0.38-2.06
		c-0.08-0.35-0.15-0.71-0.21-1.06c-0.06-0.35-0.13-0.71-0.21-1.06c-0.04-0.31-0.09-0.65-0.15-1c-0.06-0.35-0.11-0.71-0.15-1.06
		c-0.08,0.35-0.16,0.71-0.24,1.06c-0.08,0.35-0.14,0.69-0.18,1c-0.08,0.35-0.15,0.71-0.21,1.06c-0.06,0.35-0.13,0.7-0.21,1.06
		c-0.16,0.7-0.3,1.4-0.44,2.08c-0.14,0.69-0.28,1.36-0.44,2.03l-5.34,23.61h-3.99l-8.22-39.17h3.94l4.87,23.14
		c0.12,0.78,0.24,1.55,0.38,2.29c0.14,0.74,0.28,1.47,0.44,2.17c0.08,0.35,0.15,0.71,0.21,1.06c0.06,0.35,0.13,0.71,0.21,1.06
		c0.04,0.39,0.1,0.76,0.18,1.12c0.08,0.35,0.16,0.71,0.24,1.06c0.08-0.35,0.15-0.7,0.21-1.06c0.06-0.35,0.13-0.7,0.21-1.06
		c0.04-0.2,0.08-0.38,0.12-0.56c0.04-0.18,0.08-0.36,0.12-0.56c0.04-0.16,0.08-0.33,0.12-0.53c0.04-0.2,0.08-0.37,0.12-0.53
		c0-0.12,0.01-0.24,0.03-0.35c0.02-0.12,0.05-0.23,0.09-0.35c0-0.12,0.02-0.24,0.06-0.35c0.04-0.12,0.08-0.24,0.12-0.35
		c0.04-0.24,0.09-0.47,0.15-0.7c0.06-0.24,0.11-0.47,0.15-0.71c0.04-0.12,0.07-0.24,0.09-0.35c0.02-0.12,0.05-0.25,0.09-0.41
		c0-0.12,0.01-0.23,0.03-0.35c0.02-0.12,0.05-0.24,0.09-0.35l5.34-23.32h3.82l4.87,23.02c0.08,0.43,0.16,0.84,0.24,1.23
		c0.08,0.39,0.16,0.76,0.23,1.12c0.08,0.35,0.16,0.7,0.24,1.06c0.08,0.35,0.18,0.71,0.29,1.06c0.08,0.39,0.16,0.77,0.23,1.15
		c0.08,0.37,0.16,0.73,0.24,1.09c0.04,0.16,0.08,0.33,0.12,0.53c0.04,0.2,0.08,0.37,0.12,0.53c0.04,0.2,0.08,0.38,0.12,0.56
		c0.04,0.18,0.08,0.36,0.12,0.56c0-0.12,0.01-0.23,0.03-0.35c0.02-0.12,0.05-0.25,0.09-0.41c0-0.12,0.01-0.24,0.03-0.35
		c0.02-0.12,0.05-0.24,0.09-0.35c0.04-0.12,0.07-0.24,0.09-0.35c0.02-0.12,0.05-0.25,0.09-0.41c0-0.12,0.01-0.24,0.03-0.35
		c0.02-0.12,0.05-0.23,0.09-0.35c0.08-0.47,0.17-0.95,0.26-1.44c0.1-0.49,0.21-0.99,0.32-1.5c0.08-0.51,0.18-1.01,0.29-1.5
		c0.12-0.49,0.24-0.97,0.35-1.44l5.11-23.08h3.88L191.29,47.48z"/>
	<path class="st1" d="M207.26,12.65h-3.94V8.31h3.94V12.65z M207.26,47.48h-3.94V19.7h3.94V47.48z"/>
	<path class="st1" d="M231.4,22.17l-13.92,21.97h13.92v3.35h-18.68V44.6l13.74-21.61h-12.45V19.7h17.38V22.17z"/>
	<path class="st1" d="M252.31,47.48c-0.04-0.24-0.09-0.5-0.15-0.79c-0.06-0.29-0.11-0.58-0.15-0.85c-0.04-0.31-0.07-0.62-0.09-0.91
		c-0.02-0.29-0.03-0.58-0.03-0.85c-0.55,0.51-1.12,0.98-1.7,1.41c-0.59,0.43-1.19,0.86-1.82,1.29c-0.63,0.39-1.29,0.68-2,0.85
		c-0.7,0.18-1.45,0.26-2.23,0.26c-1.17,0-2.24-0.17-3.2-0.5c-0.96-0.33-1.83-0.85-2.61-1.56c-0.74-0.7-1.3-1.53-1.67-2.47
		c-0.37-0.94-0.56-2.02-0.56-3.23c0-1.41,0.26-2.65,0.79-3.73c0.53-1.08,1.32-1.99,2.38-2.73c1.06-0.71,2.16-1.34,3.32-1.91
		c1.16-0.57,2.38-1.05,3.67-1.44c0.47-0.16,0.95-0.3,1.44-0.44c0.49-0.14,0.99-0.26,1.5-0.38c0.47-0.12,0.94-0.23,1.41-0.35
		c0.47-0.12,0.9-0.24,1.29-0.35c0-0.04,0-0.07,0-0.09c0-0.02,0-0.05,0-0.09c0-0.04,0-0.08,0-0.12c0-0.08,0-0.15,0-0.21
		c0-0.06,0.02-0.11,0.06-0.15c0-0.04,0-0.07,0-0.09c0-0.02,0-0.05,0-0.09c0-0.04,0-0.08,0-0.12c0-0.08,0-0.15,0-0.21
		c0-0.06,0-0.11,0-0.15c0-0.78-0.13-1.5-0.38-2.14c-0.25-0.65-0.62-1.2-1.09-1.67c-0.51-0.47-1.08-0.83-1.73-1.09
		c-0.65-0.25-1.36-0.38-2.14-0.38c-0.74,0-1.45,0.12-2.11,0.35c-0.67,0.23-1.27,0.59-1.82,1.06c-0.55,0.47-1.06,0.96-1.53,1.47
		c-0.47,0.51-0.92,1.06-1.35,1.64l-2.76-2.17c0.63-0.74,1.27-1.46,1.94-2.14c0.67-0.68,1.37-1.28,2.11-1.79
		c0.74-0.55,1.57-0.95,2.47-1.2c0.9-0.25,1.9-0.38,3-0.38c0.08,0,0.16,0,0.23,0c0.08,0,0.16,0,0.24,0c0.04,0,0.08,0,0.12,0
		c0.04,0,0.1,0,0.18,0c0.04,0.04,0.08,0.06,0.12,0.06c0.04,0,0.08,0,0.12,0c0.78,0.04,1.53,0.18,2.23,0.41s1.41,0.57,2.11,1
		c0.67,0.39,1.25,0.86,1.76,1.41c0.51,0.55,0.94,1.17,1.29,1.88c0.2,0.43,0.35,0.87,0.47,1.32c0.12,0.45,0.2,0.89,0.24,1.32
		c0.04,0.47,0.07,0.93,0.09,1.38c0.02,0.45,0.03,0.89,0.03,1.32v1.82v9.16c0,0.67,0.01,1.31,0.03,1.94
		c0.02,0.63,0.05,1.25,0.09,1.88c0.04,0.63,0.12,1.23,0.23,1.82c0.12,0.59,0.27,1.16,0.47,1.7H252.31z M251.78,32.03h-0.06
		c-0.35,0.12-0.71,0.23-1.06,0.32c-0.35,0.1-0.74,0.19-1.17,0.26c-0.2,0.04-0.39,0.09-0.59,0.15c-0.2,0.06-0.39,0.13-0.59,0.21
		c-0.24,0.04-0.45,0.09-0.65,0.15s-0.39,0.13-0.59,0.21c-0.86,0.27-1.7,0.61-2.53,1c-0.82,0.39-1.61,0.82-2.35,1.29
		c-0.74,0.47-1.31,1.05-1.7,1.73c-0.39,0.69-0.63,1.48-0.7,2.38c0,0.04,0,0.08,0,0.12v0.06c0,0.59,0.1,1.15,0.29,1.67
		s0.49,1.03,0.88,1.5c0.35,0.47,0.78,0.82,1.29,1.06c0.51,0.24,1.08,0.35,1.7,0.35c0.78,0,1.55-0.11,2.29-0.32
		c0.74-0.21,1.45-0.52,2.11-0.91c0.67-0.43,1.29-0.89,1.88-1.38c0.59-0.49,1.14-1.03,1.64-1.62v-8.4
		C251.86,31.94,251.82,32,251.78,32.03z"/>
	<path class="st1" d="M275.27,22.87c-1.37,0.08-2.55,0.34-3.55,0.79c-1,0.45-1.83,1.13-2.5,2.03c-0.63,0.9-1.21,1.87-1.76,2.91
		c-0.55,1.04-1.04,2.12-1.47,3.26v15.62h-3.93V19.7h3.93v5.93c0.04-0.04,0.08-0.09,0.12-0.15c0.04-0.06,0.08-0.11,0.12-0.15
		c0.04-0.08,0.08-0.16,0.12-0.24c0.04-0.08,0.08-0.16,0.12-0.24c0.35-0.67,0.76-1.31,1.23-1.94c0.47-0.63,0.98-1.23,1.53-1.82
		c0.55-0.55,1.18-0.97,1.91-1.26c0.72-0.29,1.52-0.44,2.38-0.44c0.16,0,0.3,0,0.44,0c0.14,0,0.28,0,0.44,0c0.08,0,0.16,0,0.24,0
		c0.08,0,0.16,0,0.24,0c0.04,0.04,0.1,0.06,0.18,0.06c0.08,0,0.16,0,0.24,0v-0.12V22.87z"/>
	<path class="st1" d="M300,47.48h-3.94v-3.17c-0.47,0.63-0.97,1.16-1.5,1.59c-0.53,0.43-1.07,0.8-1.61,1.12
		c-0.55,0.27-1.15,0.49-1.79,0.65c-0.65,0.16-1.36,0.24-2.14,0.24c-0.82,0-1.61-0.1-2.35-0.29c-0.74-0.2-1.47-0.51-2.17-0.94
		c-0.7-0.43-1.33-0.93-1.88-1.5c-0.55-0.57-1.04-1.18-1.47-1.85c-0.51-0.78-0.92-1.59-1.23-2.41c-0.31-0.82-0.53-1.66-0.65-2.53
		c-0.16-0.86-0.26-1.73-0.32-2.61c-0.06-0.88-0.09-1.77-0.09-2.67c0-0.27,0-0.55,0-0.82c0-0.27,0.02-0.55,0.06-0.82
		c0-0.16,0.01-0.3,0.03-0.44c0.02-0.14,0.05-0.28,0.09-0.44c0.04-0.12,0.07-0.24,0.09-0.38c0.02-0.14,0.05-0.28,0.09-0.44
		c0.23-1.29,0.62-2.53,1.15-3.7c0.53-1.18,1.2-2.31,2.03-3.41c0.82-1.06,1.8-1.86,2.94-2.41c1.14-0.55,2.41-0.82,3.82-0.82
		c0.67,0,1.31,0.09,1.94,0.26c0.63,0.18,1.23,0.42,1.82,0.73c0.59,0.31,1.15,0.67,1.67,1.06c0.53,0.39,1.03,0.8,1.5,1.23V8.36H300
		V47.48z M294.89,25.34c-0.43-0.51-0.92-0.96-1.47-1.35c-0.55-0.43-1.15-0.74-1.79-0.94c-0.65-0.2-1.32-0.29-2.03-0.29
		c-0.9,0-1.7,0.18-2.41,0.53c-0.7,0.35-1.29,0.88-1.76,1.59c-0.51,0.71-0.92,1.43-1.23,2.17c-0.31,0.74-0.57,1.53-0.76,2.35
		c-0.08,0.31-0.15,0.63-0.21,0.94c-0.06,0.31-0.11,0.63-0.15,0.94c-0.04,0.27-0.06,0.56-0.06,0.85c0,0.29,0,0.58,0,0.85
		c0,0.12,0,0.24,0,0.35c0,0.12,0,0.22,0,0.29c0,0.12,0,0.24,0,0.35s0,0.24,0,0.35c0,0.24,0,0.47,0,0.7c0,0.24,0.02,0.45,0.06,0.65
		c0,0.59,0.04,1.17,0.12,1.73c0.08,0.57,0.18,1.13,0.29,1.67c0.12,0.55,0.28,1.08,0.5,1.59c0.22,0.51,0.5,1,0.85,1.47
		c0.27,0.39,0.58,0.75,0.91,1.09c0.33,0.33,0.69,0.64,1.09,0.91c0.43,0.27,0.86,0.47,1.29,0.59c0.43,0.12,0.9,0.18,1.41,0.18
		c0.7,0,1.37-0.12,2-0.35c0.63-0.24,1.19-0.59,1.7-1.06c0.55-0.47,1.03-0.96,1.44-1.47c0.41-0.51,0.79-1.06,1.15-1.64
		c0-0.04,0.01-0.08,0.03-0.12c0.02-0.04,0.05-0.08,0.09-0.12c0-0.04,0.01-0.08,0.03-0.12c0.02-0.04,0.05-0.08,0.09-0.12V26.92
		C295.71,26.38,295.32,25.85,294.89,25.34z"/>
</g>
<g>
	<path class="st2" d="M25.01,1.39c0.92-1.85,2.41-1.85,3.33,0l5.48,11.1c0.91,1.85,3.34,3.61,5.38,3.91l12.25,1.78
		c2.05,0.3,2.51,1.72,1.03,3.16l-8.87,8.64c-1.48,1.44-2.41,4.29-2.06,6.33l2.09,12.2c0.35,2.04-0.86,2.92-2.69,1.96L30,44.72
		c-1.83-0.96-4.82-0.96-6.65,0l-10.96,5.76c-1.83,0.96-3.04,0.08-2.69-1.96l2.09-12.2c0.35-2.04-0.58-4.89-2.06-6.33l-8.87-8.64
		c-1.48-1.44-1.02-2.87,1.03-3.16l12.25-1.78c2.05-0.3,4.47-2.06,5.38-3.91L25.01,1.39z"/>
</g>
</svg>
